<mxfile host="app.diagrams.net" modified="2021-06-12T11:25:59.079Z" agent="5.0 (Windows NT 10.0; Win64; x64) AppleWebKit/537.36 (KHTML, like Gecko) Chrome/91.0.4472.77 Safari/537.36 Edg/91.0.864.41" etag="6WT7AvKrsV3kZ2iRVK0G" version="14.7.7" type="github">
  <diagram id="Cz0fEBuiz_Jviy1X0yJH" name="Page-1">
    <mxGraphModel dx="552" dy="379" grid="1" gridSize="10" guides="1" tooltips="1" connect="1" arrows="1" fold="1" page="1" pageScale="1" pageWidth="827" pageHeight="1169" math="1" shadow="0">
      <root>
        <mxCell id="0" />
        <mxCell id="1" parent="0" />
        <mxCell id="IcpFeoe32MFV4r-6i7G3-8" style="edgeStyle=none;rounded=0;orthogonalLoop=1;jettySize=auto;html=1;exitX=0;exitY=1;exitDx=0;exitDy=0;entryX=0.5;entryY=0;entryDx=0;entryDy=0;" edge="1" parent="1" source="IcpFeoe32MFV4r-6i7G3-1" target="IcpFeoe32MFV4r-6i7G3-2">
          <mxGeometry relative="1" as="geometry" />
        </mxCell>
        <mxCell id="IcpFeoe32MFV4r-6i7G3-9" style="edgeStyle=none;rounded=0;orthogonalLoop=1;jettySize=auto;html=1;exitX=1;exitY=1;exitDx=0;exitDy=0;entryX=0.5;entryY=0;entryDx=0;entryDy=0;" edge="1" parent="1" source="IcpFeoe32MFV4r-6i7G3-1" target="IcpFeoe32MFV4r-6i7G3-3">
          <mxGeometry relative="1" as="geometry" />
        </mxCell>
        <mxCell id="IcpFeoe32MFV4r-6i7G3-1" value="$$5_1$$" style="ellipse;whiteSpace=wrap;html=1;aspect=fixed;" vertex="1" parent="1">
          <mxGeometry x="280" y="190" width="30" height="30" as="geometry" />
        </mxCell>
        <mxCell id="IcpFeoe32MFV4r-6i7G3-2" value="$$5_2$$" style="ellipse;whiteSpace=wrap;html=1;aspect=fixed;" vertex="1" parent="1">
          <mxGeometry x="250" y="240" width="30" height="30" as="geometry" />
        </mxCell>
        <mxCell id="IcpFeoe32MFV4r-6i7G3-3" value="$$7_2$$" style="ellipse;whiteSpace=wrap;html=1;aspect=fixed;" vertex="1" parent="1">
          <mxGeometry x="310" y="240" width="30" height="30" as="geometry" />
        </mxCell>
        <mxCell id="IcpFeoe32MFV4r-6i7G3-4" value="$$2_1$$" style="ellipse;whiteSpace=wrap;html=1;aspect=fixed;" vertex="1" parent="1">
          <mxGeometry x="384" y="190" width="30" height="30" as="geometry" />
        </mxCell>
        <mxCell id="IcpFeoe32MFV4r-6i7G3-6" style="rounded=0;orthogonalLoop=1;jettySize=auto;html=1;exitX=0;exitY=1;exitDx=0;exitDy=0;entryX=0.5;entryY=0;entryDx=0;entryDy=0;" edge="1" parent="1" source="IcpFeoe32MFV4r-6i7G3-5" target="IcpFeoe32MFV4r-6i7G3-1">
          <mxGeometry relative="1" as="geometry" />
        </mxCell>
        <mxCell id="IcpFeoe32MFV4r-6i7G3-7" style="edgeStyle=none;rounded=0;orthogonalLoop=1;jettySize=auto;html=1;exitX=1;exitY=1;exitDx=0;exitDy=0;entryX=0.5;entryY=0;entryDx=0;entryDy=0;" edge="1" parent="1" source="IcpFeoe32MFV4r-6i7G3-5" target="IcpFeoe32MFV4r-6i7G3-4">
          <mxGeometry relative="1" as="geometry" />
        </mxCell>
        <mxCell id="IcpFeoe32MFV4r-6i7G3-5" value="$$2_0$$" style="ellipse;whiteSpace=wrap;html=1;aspect=fixed;" vertex="1" parent="1">
          <mxGeometry x="330" y="140" width="30" height="30" as="geometry" />
        </mxCell>
      </root>
    </mxGraphModel>
  </diagram>
</mxfile>
